<svg width="286" height="164" viewBox="0 0 286 164" fill="none" xmlns="http://www.w3.org/2000/svg">
<path d="M11.8506 15.0225C10.4736 15.0225 9.39941 15.5889 8.62793 16.7217C7.85645 17.8447 7.4707 19.3975 7.4707 21.3799C7.4707 25.501 9.03809 27.5615 12.1729 27.5615C13.1201 27.5615 14.0381 27.4297 14.9268 27.166C15.8154 26.9023 16.709 26.585 17.6074 26.2139V31.1064C15.8203 31.8975 13.7988 32.293 11.543 32.293C8.31055 32.293 5.83008 31.3555 4.10156 29.4805C2.38281 27.6055 1.52344 24.8955 1.52344 21.3506C1.52344 19.1338 1.93848 17.1855 2.76855 15.5059C3.6084 13.8262 4.80957 12.5371 6.37207 11.6387C7.94434 10.7305 9.79004 10.2764 11.9092 10.2764C14.2236 10.2764 16.4355 10.7793 18.5449 11.7852L16.7725 16.3408C15.9814 15.9697 15.1904 15.6572 14.3994 15.4033C13.6084 15.1494 12.7588 15.0225 11.8506 15.0225ZM33.0762 15.4033H39.4043L33.1934 23.3574L39.8877 32H33.3398L27.1875 23.5771V32H21.46V15.4033H27.1875V23.4453L33.0762 15.4033ZM46.8311 15.4033V19.5781C46.8311 19.8125 46.8262 20.0664 46.8164 20.3398C46.8164 20.6133 46.7529 22.3516 46.626 25.5547L53.2617 15.4033H59.5898V32H54.4922V27.5029C54.4922 25.9307 54.5605 24.0703 54.6973 21.9219L48.0908 32H41.7334V15.4033H46.8311ZM82.9395 38.0938H77.9297V32H66.958V38.0938H61.9482V27.7373H63.4131C64.2627 26.292 64.9756 24.4902 65.5518 22.332C66.1377 20.1641 66.543 17.8545 66.7676 15.4033H80.4785V27.7373H82.9395V38.0938ZM74.751 27.7373V19.666H71.4844C71.3086 20.9844 71.0693 22.2686 70.7666 23.5186C70.4639 24.7686 70.0244 26.1748 69.4482 27.7373H74.751ZM101.147 23.665C101.147 26.3799 100.415 28.499 98.9502 30.0225C97.4951 31.5361 95.4541 32.293 92.8271 32.293C90.3076 32.293 88.3008 31.5166 86.8066 29.9639C85.3223 28.4111 84.5801 26.3115 84.5801 23.665C84.5801 20.96 85.3076 18.8604 86.7627 17.3662C88.2275 15.8623 90.2783 15.1104 92.915 15.1104C94.5459 15.1104 95.9863 15.457 97.2363 16.1504C98.4863 16.8438 99.4482 17.8398 100.122 19.1387C100.806 20.4277 101.147 21.9365 101.147 23.665ZM90.3955 23.665C90.3955 25.0908 90.5859 26.1797 90.9668 26.9316C91.3477 27.6738 91.9873 28.0449 92.8857 28.0449C93.7744 28.0449 94.3994 27.6738 94.7607 26.9316C95.1318 26.1797 95.3174 25.0908 95.3174 23.665C95.3174 22.249 95.1318 21.1797 94.7607 20.457C94.3896 19.7344 93.7549 19.373 92.8564 19.373C91.9775 19.373 91.3477 19.7344 90.9668 20.457C90.5859 21.1699 90.3955 22.2393 90.3955 23.665ZM109.438 15.4033V21.2334C109.438 22.376 109.961 22.9473 111.006 22.9473C112.119 22.9473 113.408 22.7031 114.873 22.2148V15.4033H120.601V32H114.873V25.9648C112.979 26.7852 111.226 27.1953 109.614 27.1953C107.603 27.1953 106.113 26.7363 105.146 25.8184C104.189 24.8906 103.711 23.46 103.711 21.5264V15.4033H109.438ZM130.283 15.4033V21.3799H134.824V15.4033H140.552V32H134.824V25.6426H130.283V32H124.556V15.4033H130.283ZM155.332 32L154.233 29.8027H154.116C153.345 30.7598 152.559 31.4141 151.758 31.7656C150.957 32.1172 149.922 32.293 148.652 32.293C147.09 32.293 145.859 31.8242 144.961 30.8867C144.062 29.9492 143.613 28.6309 143.613 26.9316C143.613 25.1641 144.229 23.8506 145.459 22.9912C146.689 22.1221 148.472 21.6338 150.806 21.5264L153.574 21.4385V21.2041C153.574 19.8369 152.9 19.1533 151.553 19.1533C150.342 19.1533 148.804 19.5635 146.938 20.3838L145.283 16.6045C147.217 15.6084 149.658 15.1104 152.607 15.1104C154.736 15.1104 156.382 15.6377 157.544 16.6924C158.716 17.7471 159.302 19.2217 159.302 21.1162V32H155.332ZM151.084 28.25C151.777 28.25 152.368 28.0303 152.856 27.5908C153.354 27.1514 153.604 26.5801 153.604 25.877V24.5879L152.285 24.6465C150.4 24.7148 149.458 25.4082 149.458 26.7266C149.458 27.7422 150 28.25 151.084 28.25ZM166.919 32H160.854L165.117 25.7012C164.258 25.2324 163.579 24.5684 163.081 23.709C162.583 22.8496 162.334 21.8535 162.334 20.7207C162.334 19.0215 162.964 17.7129 164.224 16.7949C165.493 15.8672 167.28 15.4033 169.585 15.4033H177.51V32H171.782V26.2432H170.098L166.919 32ZM168.062 20.8965C168.062 21.4043 168.242 21.7998 168.604 22.083C168.965 22.3564 169.482 22.4932 170.156 22.4932H171.782V19.1533H170.127C169.482 19.1533 168.975 19.3047 168.604 19.6074C168.242 19.9102 168.062 20.3398 168.062 20.8965ZM17.7246 47.4033V64H11.9971V51.666H7.70508V64H1.97754V47.4033H17.7246ZM31.6553 64.293C30.8154 64.293 30.0635 64.1562 29.3994 63.8828C28.7354 63.5996 28.0762 63.0967 27.4219 62.374H27.1582C27.334 63.5361 27.4219 64.2588 27.4219 64.542V71.207H21.6943V47.4033H26.3525L27.1582 49.5127H27.4219C28.4863 47.9111 29.9561 47.1104 31.8311 47.1104C33.667 47.1104 35.1074 47.8721 36.1523 49.3955C37.1973 50.9189 37.7197 53.0088 37.7197 55.665C37.7197 58.3408 37.1729 60.4502 36.0791 61.9932C34.9951 63.5264 33.5205 64.293 31.6553 64.293ZM29.7363 51.6074C28.8965 51.6074 28.3057 51.9102 27.9639 52.5156C27.6318 53.1113 27.4512 54 27.4219 55.1816V55.6357C27.4219 57.0615 27.6123 58.0918 27.9932 58.7266C28.374 59.3613 28.9746 59.6787 29.7949 59.6787C30.5273 59.6787 31.0596 59.3662 31.3916 58.7412C31.7236 58.1064 31.8896 57.0615 31.8896 55.6064C31.8896 54.1807 31.7236 53.1602 31.3916 52.5449C31.0596 51.9199 30.5078 51.6074 29.7363 51.6074ZM56.8506 55.665C56.8506 58.3799 56.1182 60.499 54.6533 62.0225C53.1982 63.5361 51.1572 64.293 48.5303 64.293C46.0107 64.293 44.0039 63.5166 42.5098 61.9639C41.0254 60.4111 40.2832 58.3115 40.2832 55.665C40.2832 52.96 41.0107 50.8604 42.4658 49.3662C43.9307 47.8623 45.9814 47.1104 48.6182 47.1104C50.249 47.1104 51.6895 47.457 52.9395 48.1504C54.1895 48.8438 55.1514 49.8398 55.8252 51.1387C56.5088 52.4277 56.8506 53.9365 56.8506 55.665ZM46.0986 55.665C46.0986 57.0908 46.2891 58.1797 46.6699 58.9316C47.0508 59.6738 47.6904 60.0449 48.5889 60.0449C49.4775 60.0449 50.1025 59.6738 50.4639 58.9316C50.835 58.1797 51.0205 57.0908 51.0205 55.665C51.0205 54.249 50.835 53.1797 50.4639 52.457C50.0928 51.7344 49.458 51.373 48.5596 51.373C47.6807 51.373 47.0508 51.7344 46.6699 52.457C46.2891 53.1699 46.0986 54.2393 46.0986 55.665ZM72.4658 47.4033V51.666H65.8594V64H60.1318V47.4033H72.4658ZM85.1221 64.293C84.2822 64.293 83.5303 64.1562 82.8662 63.8828C82.2021 63.5996 81.543 63.0967 80.8887 62.374H80.625C80.8008 63.5361 80.8887 64.2588 80.8887 64.542V71.207H75.1611V47.4033H79.8193L80.625 49.5127H80.8887C81.9531 47.9111 83.4229 47.1104 85.2979 47.1104C87.1338 47.1104 88.5742 47.8721 89.6191 49.3955C90.6641 50.9189 91.1865 53.0088 91.1865 55.665C91.1865 58.3408 90.6396 60.4502 89.5459 61.9932C88.4619 63.5264 86.9873 64.293 85.1221 64.293ZM83.2031 51.6074C82.3633 51.6074 81.7725 51.9102 81.4307 52.5156C81.0986 53.1113 80.918 54 80.8887 55.1816V55.6357C80.8887 57.0615 81.0791 58.0918 81.46 58.7266C81.8408 59.3613 82.4414 59.6787 83.2617 59.6787C83.9941 59.6787 84.5264 59.3662 84.8584 58.7412C85.1904 58.1064 85.3564 57.0615 85.3564 55.6064C85.3564 54.1807 85.1904 53.1602 84.8584 52.5449C84.5264 51.9199 83.9746 51.6074 83.2031 51.6074ZM105.293 64L104.194 61.8027H104.077C103.306 62.7598 102.52 63.4141 101.719 63.7656C100.918 64.1172 99.8828 64.293 98.6133 64.293C97.0508 64.293 95.8203 63.8242 94.9219 62.8867C94.0234 61.9492 93.5742 60.6309 93.5742 58.9316C93.5742 57.1641 94.1895 55.8506 95.4199 54.9912C96.6504 54.1221 98.4326 53.6338 100.767 53.5264L103.535 53.4385V53.2041C103.535 51.8369 102.861 51.1533 101.514 51.1533C100.303 51.1533 98.7646 51.5635 96.8994 52.3838L95.2441 48.6045C97.1777 47.6084 99.6191 47.1104 102.568 47.1104C104.697 47.1104 106.343 47.6377 107.505 48.6924C108.677 49.7471 109.263 51.2217 109.263 53.1162V64H105.293ZM101.045 60.25C101.738 60.25 102.329 60.0303 102.817 59.5908C103.315 59.1514 103.564 58.5801 103.564 57.877V56.5879L102.246 56.6465C100.361 56.7148 99.4189 57.4082 99.4189 58.7266C99.4189 59.7422 99.9609 60.25 101.045 60.25ZM134.971 64H129.844V51.6074C129.531 52.8672 129.175 54.1709 128.774 55.5186C128.384 56.8564 127.471 59.6836 126.035 64H122.139L120.425 58.6973C119.849 56.9199 119.243 54.9229 118.608 52.7061L118.286 51.6074V64H113.159V47.4033H120.996L122.285 51.2852C122.529 52.0273 122.866 53.209 123.296 54.8301C123.726 56.4414 123.989 57.5596 124.087 58.1846C124.146 57.7256 124.492 56.4268 125.127 54.2881L125.698 52.3252L127.295 47.4033H134.971V64ZM160.752 64H155.625V51.6074C155.312 52.8672 154.956 54.1709 154.556 55.5186C154.165 56.8564 153.252 59.6836 151.816 64H147.92L146.206 58.6973C145.63 56.9199 145.024 54.9229 144.39 52.7061L144.067 51.6074V64H138.94V47.4033H146.777L148.066 51.2852C148.311 52.0273 148.647 53.209 149.077 54.8301C149.507 56.4414 149.771 57.5596 149.868 58.1846C149.927 57.7256 150.273 56.4268 150.908 54.2881L151.479 52.3252L153.076 47.4033H160.752V64ZM175.547 64L174.448 61.8027H174.331C173.56 62.7598 172.773 63.4141 171.973 63.7656C171.172 64.1172 170.137 64.293 168.867 64.293C167.305 64.293 166.074 63.8242 165.176 62.8867C164.277 61.9492 163.828 60.6309 163.828 58.9316C163.828 57.1641 164.443 55.8506 165.674 54.9912C166.904 54.1221 168.687 53.6338 171.021 53.5264L173.789 53.4385V53.2041C173.789 51.8369 173.115 51.1533 171.768 51.1533C170.557 51.1533 169.019 51.5635 167.153 52.3838L165.498 48.6045C167.432 47.6084 169.873 47.1104 172.822 47.1104C174.951 47.1104 176.597 47.6377 177.759 48.6924C178.931 49.7471 179.517 51.2217 179.517 53.1162V64H175.547ZM171.299 60.25C171.992 60.25 172.583 60.0303 173.071 59.5908C173.569 59.1514 173.818 58.5801 173.818 57.877V56.5879L172.5 56.6465C170.615 56.7148 169.673 57.4082 169.673 58.7266C169.673 59.7422 170.215 60.25 171.299 60.25Z" fill="#4F4F4F"/>
<path d="M8.07617 88.002C6.50716 88.002 5.26693 88.526 4.35547 89.5742C3.45052 90.6159 2.99805 92.0449 2.99805 93.8613C2.99805 95.7298 3.43424 97.1751 4.30664 98.1973C5.18555 99.2129 6.43555 99.7207 8.05664 99.7207C9.05273 99.7207 10.1888 99.5417 11.4648 99.1836V100.639C10.4753 101.01 9.25456 101.195 7.80273 101.195C5.69987 101.195 4.07552 100.557 2.92969 99.2812C1.79036 98.0052 1.2207 96.1921 1.2207 93.8418C1.2207 92.3704 1.49414 91.0814 2.04102 89.9746C2.5944 88.8678 3.38867 88.015 4.42383 87.416C5.46549 86.8171 6.68945 86.5176 8.0957 86.5176C9.5931 86.5176 10.9017 86.791 12.0215 87.3379L11.3184 88.7637C10.2376 88.2559 9.1569 88.002 8.07617 88.002ZM20.5762 90.2969H22.3535L17.7344 95.4629L22.7344 101H20.8398L15.957 95.5801V101H14.3359V90.2969H15.957V95.502L20.5762 90.2969ZM31.3086 101L30.9863 99.4766H30.9082C30.3743 100.147 29.8405 100.603 29.3066 100.844C28.7793 101.078 28.1185 101.195 27.3242 101.195C26.263 101.195 25.4297 100.922 24.8242 100.375C24.2253 99.8281 23.9258 99.0501 23.9258 98.041C23.9258 95.8796 25.6543 94.7467 29.1113 94.6426L30.9277 94.584V93.9199C30.9277 93.0801 30.7454 92.4616 30.3809 92.0645C30.0228 91.6608 29.4466 91.459 28.6523 91.459C27.7604 91.459 26.7513 91.7324 25.625 92.2793L25.127 91.0391C25.6543 90.7526 26.2305 90.528 26.8555 90.3652C27.487 90.2025 28.1185 90.1211 28.75 90.1211C30.026 90.1211 30.9701 90.4043 31.582 90.9707C32.2005 91.5371 32.5098 92.4453 32.5098 93.6953V101H31.3086ZM27.6465 99.8574C28.6556 99.8574 29.4466 99.5807 30.0195 99.0273C30.599 98.474 30.8887 97.6992 30.8887 96.7031V95.7363L29.2676 95.8047C27.9785 95.8503 27.0475 96.0521 26.4746 96.4102C25.9082 96.7617 25.625 97.3118 25.625 98.0605C25.625 98.6465 25.8008 99.0924 26.1523 99.3984C26.5104 99.7044 27.0085 99.8574 27.6465 99.8574ZM37.2852 90.2969V94.2031C37.2852 95.4531 37.998 96.0781 39.4238 96.0781C40.0163 96.0781 40.5827 95.987 41.123 95.8047C41.6634 95.6224 42.2754 95.3132 42.959 94.877V90.2969H44.5801V101H42.959V96.1562C42.2754 96.625 41.6406 96.957 41.0547 97.1523C40.4753 97.3411 39.8177 97.4355 39.082 97.4355C38.0143 97.4355 37.1777 97.1556 36.5723 96.5957C35.9668 96.0358 35.6641 95.2773 35.6641 94.3203V90.2969H37.2852ZM54.6094 101L54.2871 99.4766H54.209C53.6751 100.147 53.1413 100.603 52.6074 100.844C52.0801 101.078 51.4193 101.195 50.625 101.195C49.5638 101.195 48.7305 100.922 48.125 100.375C47.526 99.8281 47.2266 99.0501 47.2266 98.041C47.2266 95.8796 48.9551 94.7467 52.4121 94.6426L54.2285 94.584V93.9199C54.2285 93.0801 54.0462 92.4616 53.6816 92.0645C53.3236 91.6608 52.7474 91.459 51.9531 91.459C51.0612 91.459 50.0521 91.7324 48.9258 92.2793L48.4277 91.0391C48.9551 90.7526 49.5312 90.528 50.1562 90.3652C50.7878 90.2025 51.4193 90.1211 52.0508 90.1211C53.3268 90.1211 54.2708 90.4043 54.8828 90.9707C55.5013 91.5371 55.8105 92.4453 55.8105 93.6953V101H54.6094ZM50.9473 99.8574C51.9564 99.8574 52.7474 99.5807 53.3203 99.0273C53.8997 98.474 54.1895 97.6992 54.1895 96.7031V95.7363L52.5684 95.8047C51.2793 95.8503 50.3483 96.0521 49.7754 96.4102C49.209 96.7617 48.9258 97.3118 48.9258 98.0605C48.9258 98.6465 49.1016 99.0924 49.4531 99.3984C49.8112 99.7044 50.3092 99.8574 50.9473 99.8574ZM60.6836 90.2969V97.084L60.6152 98.8613L60.5859 99.418L66.377 90.2969H68.3984V101H66.8848V94.457L66.9141 93.168L66.9629 91.8984L61.1816 101H59.1602V90.2969H60.6836ZM63.7402 88.8809C62.5358 88.8809 61.6569 88.6497 61.1035 88.1875C60.5501 87.7188 60.2409 86.9505 60.1758 85.8828H61.6992C61.7578 86.5599 61.9336 87.0319 62.2266 87.2988C62.526 87.5658 63.0436 87.6992 63.7793 87.6992C64.4499 87.6992 64.9447 87.556 65.2637 87.2695C65.5892 86.9831 65.7878 86.5208 65.8594 85.8828H67.3926C67.3145 86.9115 66.9857 87.6699 66.4062 88.1582C65.8268 88.64 64.9382 88.8809 63.7402 88.8809ZM79.0527 91.6836H75.5762V101H73.9551V91.6836H70.5176V90.2969H79.0527V91.6836ZM85.6934 101.195C84.1113 101.195 82.8613 100.714 81.9434 99.75C81.0319 98.7865 80.5762 97.4486 80.5762 95.7363C80.5762 94.0111 80.9993 92.6406 81.8457 91.625C82.6986 90.6094 83.8411 90.1016 85.2734 90.1016C86.6146 90.1016 87.6758 90.5443 88.457 91.4297C89.2383 92.3086 89.6289 93.4707 89.6289 94.916V95.9414H82.2559C82.2884 97.1979 82.6042 98.1517 83.2031 98.8027C83.8086 99.4538 84.6582 99.7793 85.752 99.7793C86.9043 99.7793 88.0436 99.5384 89.1699 99.0566V100.502C88.597 100.749 88.0534 100.925 87.5391 101.029C87.0312 101.14 86.416 101.195 85.6934 101.195ZM85.2539 91.459C84.3945 91.459 83.7077 91.7389 83.1934 92.2988C82.6855 92.8587 82.3861 93.6335 82.2949 94.623H87.8906C87.8906 93.6009 87.6628 92.8197 87.207 92.2793C86.7513 91.7324 86.1003 91.459 85.2539 91.459ZM99.2188 90.2969V94.7793H105.215V90.2969H106.836V101H105.215V96.1758H99.2188V101H97.5977V90.2969H99.2188ZM116.855 101L116.533 99.4766H116.455C115.921 100.147 115.387 100.603 114.854 100.844C114.326 101.078 113.665 101.195 112.871 101.195C111.81 101.195 110.977 100.922 110.371 100.375C109.772 99.8281 109.473 99.0501 109.473 98.041C109.473 95.8796 111.201 94.7467 114.658 94.6426L116.475 94.584V93.9199C116.475 93.0801 116.292 92.4616 115.928 92.0645C115.57 91.6608 114.993 91.459 114.199 91.459C113.307 91.459 112.298 91.7324 111.172 92.2793L110.674 91.0391C111.201 90.7526 111.777 90.528 112.402 90.3652C113.034 90.2025 113.665 90.1211 114.297 90.1211C115.573 90.1211 116.517 90.4043 117.129 90.9707C117.747 91.5371 118.057 92.4453 118.057 93.6953V101H116.855ZM113.193 99.8574C114.202 99.8574 114.993 99.5807 115.566 99.0273C116.146 98.474 116.436 97.6992 116.436 96.7031V95.7363L114.814 95.8047C113.525 95.8503 112.594 96.0521 112.021 96.4102C111.455 96.7617 111.172 97.3118 111.172 98.0605C111.172 98.6465 111.348 99.0924 111.699 99.3984C112.057 99.7044 112.555 99.8574 113.193 99.8574ZM129.385 99.6035H134.131V90.2969H135.771V101H121.406V90.2969H123.027V99.6035H127.764V90.2969H129.385V99.6035ZM140.742 90.2969V97.084L140.674 98.8613L140.645 99.418L146.436 90.2969H148.457V101H146.943V94.457L146.973 93.168L147.021 91.8984L141.24 101H139.219V90.2969H140.742ZM5.99609 129.195C4.44661 129.195 3.24544 128.72 2.39258 127.77C1.54622 126.812 1.12305 125.462 1.12305 123.717C1.12305 121.926 1.55273 120.543 2.41211 119.566C3.27799 118.59 4.50846 118.102 6.10352 118.102C6.61784 118.102 7.13216 118.157 7.64648 118.268C8.16081 118.378 8.56445 118.508 8.85742 118.658L8.35938 120.035C8.0013 119.892 7.61068 119.775 7.1875 119.684C6.76432 119.586 6.38997 119.537 6.06445 119.537C3.88997 119.537 2.80273 120.924 2.80273 123.697C2.80273 125.012 3.06641 126.021 3.59375 126.725C4.1276 127.428 4.91536 127.779 5.95703 127.779C6.84896 127.779 7.76367 127.587 8.70117 127.203V128.639C7.98503 129.01 7.08333 129.195 5.99609 129.195ZM12.8711 129H11.25V118.297H20.2344V129H18.5938V119.703H12.8711V129ZM28.1934 129.195C26.6113 129.195 25.3613 128.714 24.4434 127.75C23.5319 126.786 23.0762 125.449 23.0762 123.736C23.0762 122.011 23.4993 120.641 24.3457 119.625C25.1986 118.609 26.3411 118.102 27.7734 118.102C29.1146 118.102 30.1758 118.544 30.957 119.43C31.7383 120.309 32.1289 121.471 32.1289 122.916V123.941H24.7559C24.7884 125.198 25.1042 126.152 25.7031 126.803C26.3086 127.454 27.1582 127.779 28.252 127.779C29.4043 127.779 30.5436 127.538 31.6699 127.057V128.502C31.097 128.749 30.5534 128.925 30.0391 129.029C29.5312 129.14 28.916 129.195 28.1934 129.195ZM27.7539 119.459C26.8945 119.459 26.2077 119.739 25.6934 120.299C25.1855 120.859 24.8861 121.633 24.7949 122.623H30.3906C30.3906 121.601 30.1628 120.82 29.707 120.279C29.2513 119.732 28.6003 119.459 27.7539 119.459ZM45.3418 132.701H43.7207V129H34.9023V118.297H36.5234V127.604H42.207V118.297H43.8281V127.604H45.3418V132.701ZM48.9453 118.297V125.084L48.877 126.861L48.8477 127.418L54.6387 118.297H56.6602V129H55.1465V122.457L55.1758 121.168L55.2246 119.898L49.4434 129H47.4219V118.297H48.9453ZM66.6797 129L66.3574 127.477H66.2793C65.7454 128.147 65.2116 128.603 64.6777 128.844C64.1504 129.078 63.4896 129.195 62.6953 129.195C61.6341 129.195 60.8008 128.922 60.1953 128.375C59.5964 127.828 59.2969 127.05 59.2969 126.041C59.2969 123.88 61.0254 122.747 64.4824 122.643L66.2988 122.584V121.92C66.2988 121.08 66.1165 120.462 65.752 120.064C65.3939 119.661 64.8177 119.459 64.0234 119.459C63.1315 119.459 62.1224 119.732 60.9961 120.279L60.498 119.039C61.0254 118.753 61.6016 118.528 62.2266 118.365C62.8581 118.202 63.4896 118.121 64.1211 118.121C65.3971 118.121 66.3411 118.404 66.9531 118.971C67.5716 119.537 67.8809 120.445 67.8809 121.695V129H66.6797ZM63.0176 127.857C64.0267 127.857 64.8177 127.581 65.3906 127.027C65.9701 126.474 66.2598 125.699 66.2598 124.703V123.736L64.6387 123.805C63.3496 123.85 62.4186 124.052 61.8457 124.41C61.2793 124.762 60.9961 125.312 60.9961 126.061C60.9961 126.646 61.1719 127.092 61.5234 127.398C61.8815 127.704 62.3796 127.857 63.0176 127.857ZM79.209 129H77.5684V119.684H74.3555C74.1797 122.001 73.9355 123.84 73.623 125.201C73.3105 126.562 72.9036 127.558 72.4023 128.189C71.9076 128.821 71.276 129.137 70.5078 129.137C70.1562 129.137 69.8763 129.098 69.668 129.02V127.818C69.8112 127.857 69.974 127.877 70.1562 127.877C70.9049 127.877 71.5007 127.086 71.9434 125.504C72.3861 123.922 72.7214 121.52 72.9492 118.297H79.209V129ZM84.2773 122.721H87.5781C90.3125 122.721 91.6797 123.727 91.6797 125.738C91.6797 126.793 91.3216 127.6 90.6055 128.16C89.8958 128.72 88.8542 129 87.4805 129H82.6562V118.297H84.2773V122.721ZM84.2773 124.117V127.643H87.4023C88.2617 127.643 88.9193 127.493 89.375 127.193C89.8307 126.894 90.0586 126.441 90.0586 125.836C90.0586 125.243 89.847 124.811 89.4238 124.537C89.0072 124.257 88.3171 124.117 87.3535 124.117H84.2773ZM96.1133 118.297V122.779H102.109V118.297H103.73V129H102.109V124.176H96.1133V129H94.4922V118.297H96.1133ZM108.789 122.721H111.709C113.07 122.721 114.076 122.975 114.727 123.482C115.384 123.984 115.713 124.736 115.713 125.738C115.713 126.812 115.365 127.626 114.668 128.18C113.978 128.727 112.959 129 111.611 129H107.168V118.297H108.789V122.721ZM119.131 129H117.51V118.297H119.131V129ZM108.789 124.117V127.643H111.533C113.252 127.643 114.111 127.04 114.111 125.836C114.111 125.237 113.913 124.801 113.516 124.527C113.118 124.254 112.441 124.117 111.484 124.117H108.789ZM127.1 129.195C125.518 129.195 124.268 128.714 123.35 127.75C122.438 126.786 121.982 125.449 121.982 123.736C121.982 122.011 122.406 120.641 123.252 119.625C124.105 118.609 125.247 118.102 126.68 118.102C128.021 118.102 129.082 118.544 129.863 119.43C130.645 120.309 131.035 121.471 131.035 122.916V123.941H123.662C123.695 125.198 124.01 126.152 124.609 126.803C125.215 127.454 126.064 127.779 127.158 127.779C128.311 127.779 129.45 127.538 130.576 127.057V128.502C130.003 128.749 129.46 128.925 128.945 129.029C128.438 129.14 127.822 129.195 127.1 129.195ZM126.66 119.459C125.801 119.459 125.114 119.739 124.6 120.299C124.092 120.859 123.792 121.633 123.701 122.623H129.297C129.297 121.601 129.069 120.82 128.613 120.279C128.158 119.732 127.507 119.459 126.66 119.459ZM3.33984 157H1.71875V146.297H10.7031V157H9.0625V147.703H3.33984V157ZM19.1211 157.195C18.4245 157.195 17.7865 157.068 17.207 156.814C16.6341 156.554 16.1523 156.157 15.7617 155.623H15.6445C15.7227 156.248 15.7617 156.84 15.7617 157.4V161.805H14.1406V146.297H15.459L15.6836 147.762H15.7617C16.1784 147.176 16.6634 146.753 17.2168 146.492C17.7702 146.232 18.4049 146.102 19.1211 146.102C20.5404 146.102 21.6341 146.587 22.4023 147.557C23.1771 148.527 23.5645 149.887 23.5645 151.639C23.5645 153.396 23.1706 154.764 22.3828 155.74C21.6016 156.71 20.5143 157.195 19.1211 157.195ZM18.8867 147.479C17.793 147.479 17.002 147.781 16.5137 148.387C16.0254 148.992 15.7747 149.956 15.7617 151.277V151.639C15.7617 153.143 16.0124 154.22 16.5137 154.871C17.015 155.516 17.819 155.838 18.9258 155.838C19.8503 155.838 20.5729 155.464 21.0938 154.715C21.6211 153.966 21.8848 152.934 21.8848 151.619C21.8848 150.285 21.6211 149.262 21.0938 148.553C20.5729 147.837 19.8372 147.479 18.8867 147.479ZM30.9277 157.195C29.3457 157.195 28.0957 156.714 27.1777 155.75C26.2663 154.786 25.8105 153.449 25.8105 151.736C25.8105 150.011 26.2337 148.641 27.0801 147.625C27.9329 146.609 29.0755 146.102 30.5078 146.102C31.849 146.102 32.9102 146.544 33.6914 147.43C34.4727 148.309 34.8633 149.471 34.8633 150.916V151.941H27.4902C27.5228 153.198 27.8385 154.152 28.4375 154.803C29.043 155.454 29.8926 155.779 30.9863 155.779C32.1387 155.779 33.278 155.538 34.4043 155.057V156.502C33.8314 156.749 33.2878 156.925 32.7734 157.029C32.2656 157.14 31.6504 157.195 30.9277 157.195ZM30.4883 147.459C29.6289 147.459 28.9421 147.739 28.4277 148.299C27.9199 148.859 27.6204 149.633 27.5293 150.623H33.125C33.125 149.601 32.8971 148.82 32.4414 148.279C31.9857 147.732 31.3346 147.459 30.4883 147.459ZM46.9336 160.701H45.3613V157H37.8809V160.701H36.3184V155.604H37.1582C38.0306 154.419 38.7142 153.029 39.209 151.434C39.7038 149.839 39.9609 148.126 39.9805 146.297H45.4004V155.604H46.9336V160.701ZM43.8379 155.604V147.576H41.4355C41.3509 149.021 41.071 150.486 40.5957 151.971C40.127 153.449 39.541 154.66 38.8379 155.604H43.8379ZM57.0605 157H55.4199V147.684H52.207C52.0312 150.001 51.7871 151.84 51.4746 153.201C51.1621 154.562 50.7552 155.558 50.2539 156.189C49.7591 156.821 49.1276 157.137 48.3594 157.137C48.0078 157.137 47.7279 157.098 47.5195 157.02V155.818C47.6628 155.857 47.8255 155.877 48.0078 155.877C48.7565 155.877 49.3522 155.086 49.7949 153.504C50.2376 151.922 50.5729 149.52 50.8008 146.297H57.0605V157ZM69.7461 151.639C69.7461 153.383 69.3066 154.747 68.4277 155.73C67.5488 156.707 66.3346 157.195 64.7852 157.195C63.8281 157.195 62.9785 156.971 62.2363 156.521C61.4941 156.072 60.9212 155.428 60.5176 154.588C60.1139 153.748 59.9121 152.765 59.9121 151.639C59.9121 149.894 60.3483 148.536 61.2207 147.566C62.0931 146.59 63.304 146.102 64.8535 146.102C66.3509 146.102 67.5391 146.6 68.418 147.596C69.3034 148.592 69.7461 149.939 69.7461 151.639ZM61.5918 151.639C61.5918 153.006 61.8652 154.048 62.4121 154.764C62.959 155.48 63.763 155.838 64.8242 155.838C65.8854 155.838 66.6895 155.483 67.2363 154.773C67.7897 154.057 68.0664 153.012 68.0664 151.639C68.0664 150.278 67.7897 149.246 67.2363 148.543C66.6895 147.833 65.8789 147.479 64.8047 147.479C63.7435 147.479 62.9427 147.827 62.4023 148.523C61.862 149.22 61.5918 150.258 61.5918 151.639ZM77.4805 146.316H78.9746V151.502L83.3984 146.316H85.1758L80.7031 151.502L85.5566 157H83.6816L78.9746 151.58V157H77.4805V151.58L72.7832 157H70.918L75.7617 151.502L71.2988 146.316H73.0762L77.4805 151.502V146.316ZM91.8457 157.195C90.2637 157.195 89.0137 156.714 88.0957 155.75C87.1842 154.786 86.7285 153.449 86.7285 151.736C86.7285 150.011 87.1517 148.641 87.998 147.625C88.8509 146.609 89.9935 146.102 91.4258 146.102C92.7669 146.102 93.8281 146.544 94.6094 147.43C95.3906 148.309 95.7812 149.471 95.7812 150.916V151.941H88.4082C88.4408 153.198 88.7565 154.152 89.3555 154.803C89.9609 155.454 90.8105 155.779 91.9043 155.779C93.0566 155.779 94.196 155.538 95.3223 155.057V156.502C94.7493 156.749 94.2057 156.925 93.6914 157.029C93.1836 157.14 92.5684 157.195 91.8457 157.195ZM91.4062 147.459C90.5469 147.459 89.86 147.739 89.3457 148.299C88.8379 148.859 88.5384 149.633 88.4473 150.623H94.043C94.043 149.601 93.8151 148.82 93.3594 148.279C92.9036 147.732 92.2526 147.459 91.4062 147.459ZM100.176 146.297V150.779H106.172V146.297H107.793V157H106.172V152.176H100.176V157H98.5547V146.297H100.176ZM112.754 146.297V153.084L112.686 154.861L112.656 155.418L118.447 146.297H120.469V157H118.955V150.457L118.984 149.168L119.033 147.898L113.252 157H111.23V146.297H112.754ZM124.443 157H122.549L125.625 152.479C124.798 152.296 124.163 151.945 123.721 151.424C123.285 150.896 123.066 150.236 123.066 149.441C123.066 148.465 123.395 147.697 124.053 147.137C124.71 146.577 125.628 146.297 126.807 146.297H131.572V157H129.951V152.723H127.246L124.443 157ZM124.648 149.461C124.648 150.698 125.547 151.316 127.344 151.316H129.951V147.703H127.012C125.436 147.703 124.648 148.289 124.648 149.461ZM134.785 155.965C134.785 155.529 134.883 155.2 135.078 154.979C135.28 154.751 135.566 154.637 135.938 154.637C136.315 154.637 136.608 154.751 136.816 154.979C137.031 155.2 137.139 155.529 137.139 155.965C137.139 156.388 137.031 156.714 136.816 156.941C136.602 157.169 136.309 157.283 135.938 157.283C135.605 157.283 135.329 157.182 135.107 156.98C134.893 156.772 134.785 156.434 134.785 155.965Z" fill="black"/>
<path fill-rule="evenodd" clip-rule="evenodd" d="M225 66C225 61.0294 229.029 57 234 57H265L285 77V116C285 120.971 280.971 125 276 125H234C229.029 125 225 120.971 225 116V66Z" fill="#ED204B"/>
<path fill-rule="evenodd" clip-rule="evenodd" d="M265 57L285 77H274C269.029 77 265 72.9706 265 68V57Z" fill="#C7183C"/>
<path d="M248 106L256.036 112.102L264.071 106" stroke="white" stroke-linecap="square"/>
<path d="M249.781 90.6108C249.781 91.8869 249.404 92.8739 248.648 93.5718C247.898 94.2645 246.831 94.6108 245.445 94.6108H244.578V98.3999H241.492V86.978H245.445C246.888 86.978 247.971 87.2931 248.695 87.9233C249.419 88.5535 249.781 89.4494 249.781 90.6108ZM244.578 92.0952H245.141C245.604 92.0952 245.971 91.965 246.242 91.7046C246.518 91.4442 246.656 91.0848 246.656 90.6265C246.656 89.8556 246.229 89.4702 245.375 89.4702H244.578V92.0952ZM261.297 92.4468C261.297 94.353 260.771 95.8218 259.719 96.853C258.672 97.8843 257.198 98.3999 255.297 98.3999H251.602V86.978H255.555C257.388 86.978 258.802 87.4468 259.797 88.3843C260.797 89.3218 261.297 90.6759 261.297 92.4468ZM258.094 92.5562C258.094 91.5093 257.885 90.7332 257.469 90.228C257.057 89.7228 256.43 89.4702 255.586 89.4702H254.688V95.8687H255.375C256.312 95.8687 257 95.5978 257.438 95.0562C257.875 94.5093 258.094 93.6759 258.094 92.5562ZM266.391 98.3999H263.352V86.978H270.102V89.4546H266.391V91.6343H269.812V94.1108H266.391V98.3999Z" fill="white"/>
<path d="M202 97.9643L210 91.9643L202 85.9643" stroke="#ACACAC" stroke-linecap="square"/>
<path d="M147 148.962C187.744 150.756 164.125 88.3673 210 92.1668" stroke="#ACACAC"/>
<path fill-rule="evenodd" clip-rule="evenodd" d="M147 151C148.105 151 149 150.105 149 149C149 147.895 148.105 147 147 147C145.895 147 145 147.895 145 149C145 150.105 145.895 151 147 151Z" fill="#ACACAC"/>
</svg>
