<?xml version="1.0" encoding="utf-8"?><svg xmlns="http://www.w3.org/2000/svg" xmlns:xlink="http://www.w3.org/1999/xlink"><symbol viewBox="0 0 43 43" id="Left_arrow" xmlns="http://www.w3.org/2000/svg"><defs><style>.acls-1{fill:#fff}.acls-2{fill:#2699fb}.acls-3{filter:url(#aPath_216)}</style><filter id="aPath_216" x="0" y="0" width="43" height="43" filterUnits="userSpaceOnUse"><feOffset dy="3"/><feGaussianBlur stdDeviation="3" result="blur"/><feFlood flood-opacity=".161"/><feComposite operator="in" in2="blur"/><feComposite in="SourceGraphic"/></filter></defs><g id="aLeft_arrow" data-name="Left arrow" transform="translate(-682 -420)"><g class="acls-3" transform="translate(682 420)"><path id="aPath_216-2" data-name="Path 216" class="acls-1" d="M5 0h15a5 5 0 0 1 5 5v15a5 5 0 0 1-5 5H5a5 5 0 0 1-5-5V5a5 5 0 0 1 5-5z" transform="translate(9 6)"/></g><g id="aSymbol_84" data-name="Symbol 84" transform="rotate(90 828.55 579.55)"><path id="aPath_36" data-name="Path 36" class="acls-2" d="M6.7 8.1L2 3.4 3.4 2l3.3 3.3L10 2l1.4 1.4z" transform="translate(681 700)"/></g></g></symbol><symbol viewBox="0 0 47.031 45" id="NEW" xmlns="http://www.w3.org/2000/svg"><defs><style>.bcls-1{fill:#2699fb}.bcls-2{fill:#fff;font-size:10px;font-family:OpenSans-Bold,Open Sans;font-weight:700}</style></defs><g id="bNEW" transform="translate(-604.291 -184)"><g id="bGroup_21" data-name="Group 21" transform="rotate(90 233.661 417.662)"><path id="bPath_990" data-name="Path 990" class="bcls-1" d="M23.917.693l3.511 4.374a1.868 1.868 0 0 0 1.91.616l5.42-1.483A1.857 1.857 0 0 1 37.1 5.867l.308 5.606a1.812 1.812 0 0 0 1.17 1.6l5.236 2.033a1.792 1.792 0 0 1 .862 2.71L41.6 22.5a2 2 0 0 0 0 2.033l3.08 4.682a1.867 1.867 0 0 1-.862 2.71l-5.236 2.033a1.786 1.786 0 0 0-1.17 1.6l-.312 5.606a1.834 1.834 0 0 1-2.341 1.663l-5.421-1.478a1.868 1.868 0 0 0-1.91.616l-3.511 4.374a1.8 1.8 0 0 1-2.834 0l-3.511-4.374a1.868 1.868 0 0 0-1.91-.616l-5.421 1.478A1.857 1.857 0 0 1 7.9 41.164l-.308-5.606a1.812 1.812 0 0 0-1.17-1.6l-5.235-2.034a1.792 1.792 0 0 1-.862-2.71L3.4 24.532a2 2 0 0 0 0-2.033L.324 17.818a1.867 1.867 0 0 1 .862-2.71l5.236-2.033a1.786 1.786 0 0 0 1.17-1.6L7.9 5.867A1.834 1.834 0 0 1 10.242 4.2l5.421 1.478a1.868 1.868 0 0 0 1.91-.616l3.51-4.369a1.8 1.8 0 0 1 2.834 0z"/></g><text id="bNEW-2" data-name="NEW" class="bcls-2" transform="translate(616.521 210.917)"><tspan x="0" y="0">NEW</tspan></text></g></symbol><symbol viewBox="0 0 32 32" id="Open" xmlns="http://www.w3.org/2000/svg"><defs><style>.ccls-1{fill:#fff;stroke:#dbdbdb;stroke-width:2px}.ccls-2{fill:#dbdbdb}.ccls-3{stroke:none}.ccls-4{fill:none}</style></defs><g id="cOpen" transform="translate(-511 -391)"><g id="cEllipse_1" data-name="Ellipse 1" class="ccls-1" transform="translate(511 391)"><circle class="ccls-3" cx="16" cy="16" r="16"/><circle class="ccls-4" cx="16" cy="16" r="15"/></g><path id="cPath_5" data-name="Path 5" class="ccls-2" d="M8.048 4.952L0 0v9.9z" transform="rotate(90 63.952 467.953)"/></g></symbol><symbol viewBox="0 0 43 43" id="Right_arrow" xmlns="http://www.w3.org/2000/svg"><defs><style>.dcls-1{fill:#fff}.dcls-2{fill:#2699fb}.dcls-3{filter:url(#dPath_216)}</style><filter id="dPath_216" x="0" y="0" width="43" height="43" filterUnits="userSpaceOnUse"><feOffset dy="3"/><feGaussianBlur stdDeviation="3" result="blur"/><feFlood flood-opacity=".161"/><feComposite operator="in" in2="blur"/><feComposite in="SourceGraphic"/></filter></defs><g id="dRight_arrow" data-name="Right arrow" transform="translate(-861 -420)"><g class="dcls-3" transform="translate(861 420)"><path id="dPath_216-2" data-name="Path 216" class="dcls-1" d="M5 0h15a5 5 0 0 1 5 5v15a5 5 0 0 1-5 5H5a5 5 0 0 1-5-5V5a5 5 0 0 1 5-5z" transform="rotate(180 17 15.5)"/></g><g id="dSymbol_84" data-name="Symbol 84" transform="rotate(-90 652.45 474.55)"><path id="dPath_36" data-name="Path 36" class="dcls-2" d="M6.7 8.1L2 3.4 3.4 2l3.3 3.3L10 2l1.4 1.4z" transform="translate(681 700)"/></g></g></symbol><symbol viewBox="0 0 16 15" id="Star" xmlns="http://www.w3.org/2000/svg"><defs><style>.ecls-1{fill:#dbdbdb}</style></defs><path id="eStar" class="ecls-1" d="M8 0l2.5 4.934 5.5.789-4 3.849.9 5.428L8 12.434 3.1 15 4 9.572 0 5.724l5.5-.789z"/></symbol></svg>