<?xml version="1.0" encoding="utf-8"?><svg xmlns="http://www.w3.org/2000/svg" xmlns:xlink="http://www.w3.org/1999/xlink"><symbol viewBox="0 0 6 11" id="ico-leftArrow" xmlns="http://www.w3.org/2000/svg"><path d="M0 5.478L5.303 0l.654.674-4.651 4.804L6 10.326 5.346 11z"/></symbol><symbol viewBox="0 0 6 11" id="ico-rightArrow" xmlns="http://www.w3.org/2000/svg"><path d="M6 5.522L.697 11l-.654-.674 4.651-4.804L0 .674.654 0z"/></symbol><symbol viewBox="0 0 28 14" id="ico_flag" xmlns="http://www.w3.org/2000/svg"><path fill-rule="evenodd" d="M0 0h22l6 7-6 7H0V0z"/></symbol><symbol viewBox="0 0 15.5 9.5" id="ico_topArrow" xmlns="http://www.w3.org/2000/svg"><path d="M.5 7.5l7-7 7 7"/></symbol><symbol viewBox="0 0 55 48" id="mobi_logo" xmlns="http://www.w3.org/2000/svg"><path fill-rule="evenodd" d="M54.9 43.4c-.2 2.2-2 4-4.2 4.2a104.8 104.8 0 0 1-22-.2c-8.3-.7-16.6-2-23.7-3.8-2.6-.7-4.7-3-4.9-5.4a89.2 89.2 0 0 1 1-19.7 91.7 91.7 0 0 1 4-16C5.6 1.2 7.6 0 9.7 0a148.6 148.6 0 0 1 36.6 5.5c2 .6 3.7 2.1 4.2 3.7A73.4 73.4 0 0 1 54 25a112 112 0 0 1 .9 18.4zm-1.6-10A105.7 105.7 0 0 0 49.5 10c-.5-1.5-2.2-3-4-3.5a138 138 0 0 0-34.7-5.2c-2 0-3.9 1-4.5 2.4a57.3 57.3 0 0 0-3.5 15.1A99 99 0 0 0 2 37.2c.2 2.2 2.1 4.3 4.5 5A143.4 143.4 0 0 0 49.3 46a4.3 4.3 0 0 0 4-4 84 84 0 0 0 0-8.5zm-10.3 4c-3 0-4.9-1.2-4.9-4.2V28h2.1v5c0 1.5.2 2.7 2.8 2.7 2.5 0 2.7-1.2 2.7-2.7v-5.1h2.2v5.2c0 3-2 4.2-5 4.2zM45.6 16h2.2v10.8h-2.2V16zm-.8 7.6c0 2-1.6 3.2-4.2 3.2h-7V16h6.6c2.5 0 4.2.7 4.2 2.7 0 1.4-.6 1.9-1.2 2.3.7.3 1.6 1.2 1.6 2.6zm-4.5-5.9h-4.5v2.5h4.5c1.4 0 2-.3 2-1.2 0-1-.6-1.3-2-1.3zm0 4.3h-4.5v3h4.6c1.3 0 2.3-.3 2.3-1.5s-.9-1.5-2.3-1.5zm-3 8.6c0 1.7-1.2 2.7-2.5 2.7l2.8 3.8h-2.7l-2.6-3.6h-2.1V37h-2.1v-9.2h5.5c2.2 0 3.7.5 3.7 2.7zM33 29.4h-2.8V32H33c1.5 0 2.2-.2 2.2-1.3s-.7-1.3-2.2-1.3zM26.5 27c-5.1 0-6.4-3.3-6.4-5.6 0-3 1.6-5.7 6.4-5.7 4.8 0 6.5 2.8 6.5 5.7 0 2.3-1.4 5.6-6.5 5.6zm0-9.5c-2.5 0-4.3 1.2-4.3 3.8 0 3 2.3 4 4.3 4s4.3-1 4.3-4c0-2.6-1.8-3.8-4.3-3.8zm-4 18.2c2.5 0 2.7-1.2 2.7-2.7v-5.1h2.1v5.2c0 3-1.9 4.2-4.9 4.2-3 0-4.8-1.2-4.8-4.2V28h2v5c0 1.5.3 2.7 2.8 2.7zm-5.1-17.1l-3.5 8.2h-1.7l-3.5-8.2v8.2h-2V16h3l3.3 8 3.5-8h2.7v10.8h-1.8v-8.2zm-5.5 9c2.1 0 4.4.9 4.9 3.2h-2.2c-.2-.5-.7-1.3-2.5-1.3-3 0-3.2 2.2-3.2 3 0 1.8 1.1 3 3 3 1.5 0 2.4-.5 2.8-1.4h-3v-1.7h5.1v4.8h-1l-.4-1c-.7.5-1.6 1-3.4 1-2.4 0-5.2-1-5.2-4.7 0-2.4 1.5-4.8 5.1-4.8z"/></symbol></svg>